<svg width="205" height="48" viewBox="0 0 205 48" fill="none" xmlns="http://www.w3.org/2000/svg">
<path d="M28.2117 29.757H14.8215L12.48 35.2156C11.8946 36.56 11.6019 37.5629 11.6019 38.2243C11.6099 38.4987 11.6821 38.7674 11.8128 39.0089C11.9434 39.2503 12.1288 39.4578 12.3541 39.6146C12.8536 40.0048 13.9376 40.2643 15.6058 40.3931V41.3356H4.73853V40.3902C6.18243 40.1346 7.11706 39.8029 7.54243 39.3951C8.41267 38.5775 9.37365 36.919 10.4254 34.4195L22.5893 5.95605H23.4702L35.5083 34.7239C36.4839 37.0361 37.3619 38.5365 38.1424 39.2253C38.9229 39.9141 40.0244 40.3043 41.4468 40.396V41.3385H27.8049V40.3902C29.1805 40.32 30.1112 40.0975 30.5971 39.6995C30.8227 39.536 31.0062 39.3213 31.1324 39.0729C31.2586 38.8246 31.3239 38.5498 31.3229 38.2712C31.3229 37.5258 30.9834 36.3443 30.3044 34.7268L28.2117 29.757ZM27.4976 27.8692L21.6439 13.8936L15.6263 27.8692H27.4976Z" fill="white"/>
<path d="M71.3913 5.96188L72.1844 17.719H71.3913C70.3376 14.2068 68.8332 11.6702 66.8781 10.1092C64.923 8.54823 62.5766 7.77457 59.8391 7.78823C57.6393 7.76366 55.479 8.37333 53.6166 9.54432C51.763 10.7151 50.3044 12.5687 49.241 15.1053C48.1776 17.6419 47.6469 20.8126 47.6488 24.6175C47.6488 27.7394 48.1503 30.4516 49.1532 32.7541C50.0702 34.9431 51.6547 36.7868 53.681 38.0224C55.7647 39.2647 58.154 39.9003 60.5796 39.8575C62.6513 39.8998 64.6985 39.4036 66.521 38.4175C68.24 37.4575 70.1278 35.5492 72.1844 32.6926L72.9747 33.2019C71.24 36.2809 69.2166 38.5336 66.9044 39.9599C64.5922 41.3863 61.8459 42.1004 58.6654 42.1024C52.9347 42.1024 48.4976 39.9775 45.3542 35.7277C43.0127 32.5629 41.842 28.839 41.842 24.556C41.808 21.2411 42.606 17.9706 44.163 15.0438C45.6174 12.2438 47.8319 9.91068 50.5522 8.31213C53.2448 6.72755 56.3169 5.90315 59.441 5.92676C62.0167 5.94548 64.5514 6.57437 66.8371 7.76189C67.5513 8.13652 68.0605 8.32384 68.3649 8.32384C68.5871 8.32624 68.8076 8.28454 69.0136 8.20114C69.2196 8.11774 69.407 7.99431 69.5649 7.83798C70.0479 7.29907 70.3739 6.63803 70.5074 5.92676L71.3913 5.96188Z" fill="white"/>
<path d="M86.7454 8.63976V22.311H94.3552C96.3249 22.311 97.6449 22.0183 98.3064 21.4183C99.1903 20.6378 99.6839 19.2602 99.7873 17.2856H100.73V29.3237H99.7873C99.5473 27.6417 99.3093 26.5617 99.0732 26.0837C98.7395 25.4636 98.2108 24.9709 97.5688 24.6817C96.8703 24.3422 95.7971 24.1724 94.3493 24.1724H86.7395V35.5871C86.7395 37.1168 86.8078 38.0476 86.9444 38.3793C87.0847 38.7169 87.3369 38.9959 87.6586 39.1695C87.9981 39.3656 88.642 39.4622 89.5961 39.4622H95.4498C97.401 39.4622 98.8205 39.3266 99.7083 39.0554C100.675 38.7319 101.551 38.1808 102.261 37.4485C103.314 36.3949 104.393 34.8046 105.498 32.6778H106.519L103.534 41.35H76.8995V40.39H78.1259C78.9363 40.3919 79.7343 40.1906 80.4469 39.8046C80.7031 39.6837 80.933 39.5134 81.1234 39.3034C81.3137 39.0935 81.4608 38.8481 81.5561 38.5812C81.7512 38.0368 81.8488 36.9227 81.8488 35.2388V12.7724C81.8488 10.5773 81.6273 9.22512 81.1844 8.71585C80.5737 8.03683 79.5542 7.69732 78.1259 7.69732H76.8995V6.75195H103.551L103.935 14.3412H102.94C102.582 12.5246 102.192 11.2749 101.769 10.592C101.303 9.88701 100.63 9.34398 99.843 9.03781C99.1639 8.78415 97.9649 8.65634 96.2459 8.65439L86.7454 8.63976Z" fill="white"/>
<path d="M144.076 41.3354H134.845L123.138 25.1646C122.271 25.1998 121.566 25.2173 121.021 25.2173C120.799 25.2173 120.562 25.2173 120.307 25.2173C120.053 25.2173 119.789 25.1939 119.517 25.1763V35.2271C119.517 37.4027 119.755 38.7539 120.231 39.2807C120.875 40.03 121.847 40.4046 123.138 40.4046H124.49V41.3471H109.671V40.39H110.982C112.444 40.39 113.489 39.9139 114.117 38.9617C114.474 38.4349 114.653 37.1851 114.653 35.2124V12.8778C114.653 10.7042 114.415 9.35293 113.939 8.82415C113.277 8.07489 112.292 7.70123 110.982 7.70318H109.68V6.75781H122.28C125.952 6.75781 128.66 7.02611 130.402 7.56269C132.138 8.09351 133.681 9.12118 134.839 10.5188C136.054 11.9519 136.702 13.78 136.662 15.6583C136.695 17.6997 135.953 19.6775 134.584 21.1929C133.199 22.7539 131.053 23.8593 128.145 24.509L135.287 34.431C136.92 36.7081 138.323 38.2212 139.496 38.9705C140.668 39.7198 142.195 40.1929 144.076 40.39V41.3354ZM119.517 23.5607C119.839 23.5607 120.12 23.5607 120.357 23.5607C120.594 23.5607 120.79 23.5607 120.942 23.5607C124.24 23.5607 126.726 22.8466 128.4 21.4183C129.206 20.7598 129.852 19.9262 130.287 18.9808C130.723 18.0355 130.937 17.0033 130.914 15.9627C130.914 13.8027 130.238 12.0466 128.886 10.6944C127.534 9.34221 125.744 8.66611 123.518 8.66611C122.172 8.70855 120.832 8.87114 119.514 9.15196L119.517 23.5607Z" fill="white"/>
<path d="M161.862 6.33936H162.641L164.69 11.8506H163.935L163.349 10.1706H161.151L160.566 11.8506H159.858L161.862 6.33936ZM161.339 9.6057H163.141L162.509 7.75594C162.401 7.44862 162.263 6.9774 162.263 6.9774H162.246C162.246 6.9774 162.1 7.43984 161.991 7.75594L161.339 9.6057Z" fill="white"/>
<path d="M164.798 9.86029C164.798 8.70419 165.539 7.76467 166.724 7.76467C167.131 7.73431 167.535 7.86119 167.852 8.11921C168.169 8.37724 168.375 8.74681 168.427 9.15199H167.798C167.767 8.89521 167.638 8.66038 167.438 8.49669C167.238 8.33301 166.982 8.25318 166.724 8.27394C165.878 8.27394 165.439 8.97639 165.439 9.85443C165.439 10.7325 165.878 11.4291 166.724 11.4291C166.861 11.4412 167 11.4247 167.131 11.3808C167.261 11.3369 167.382 11.2664 167.484 11.1738C167.586 11.0812 167.668 10.9684 167.725 10.8426C167.781 10.7168 167.811 10.5807 167.813 10.4427H168.427C168.345 11.3969 167.719 11.953 166.724 11.953C165.539 11.9588 164.798 11.0164 164.798 9.86029Z" fill="white"/>
<path d="M168.799 9.86029C168.799 8.70419 169.539 7.76467 170.725 7.76467C171.132 7.73431 171.536 7.86119 171.853 8.11921C172.17 8.37724 172.375 8.74681 172.428 9.15199H171.796C171.766 8.89546 171.637 8.66064 171.438 8.4969C171.238 8.33315 170.982 8.25323 170.725 8.27394C169.879 8.27394 169.44 8.97639 169.44 9.85443C169.44 10.7325 169.879 11.4291 170.725 11.4291C170.862 11.4412 171.001 11.4247 171.131 11.3808C171.262 11.3369 171.382 11.2664 171.485 11.1738C171.587 11.0812 171.669 10.9684 171.726 10.8426C171.782 10.7168 171.812 10.5807 171.814 10.4427H172.428C172.343 11.3969 171.72 11.953 170.725 11.953C169.539 11.9588 168.799 11.0164 168.799 9.86029Z" fill="white"/>
<path d="M175.56 11.8506V11.3033H175.542C175.415 11.505 175.238 11.6701 175.027 11.7825C174.817 11.8949 174.581 11.9506 174.342 11.9443C174.164 11.9604 173.984 11.9376 173.815 11.8773C173.647 11.8171 173.493 11.7208 173.365 11.5952C173.237 11.4696 173.138 11.3177 173.075 11.15C173.012 10.9824 172.986 10.803 172.999 10.6243V7.86426H173.617V10.6096C173.617 11.1247 173.947 11.4262 174.509 11.4262C174.652 11.4283 174.794 11.4004 174.926 11.3445C175.058 11.2886 175.177 11.2058 175.275 11.1014C175.373 10.997 175.448 10.8734 175.496 10.7383C175.543 10.6032 175.562 10.4597 175.551 10.3169V7.86426H176.175V11.8506H175.56Z" fill="white"/>
<path d="M177.656 8.52876H177.67C177.791 8.31842 177.963 8.14257 178.172 8.01804C178.38 7.89352 178.616 7.82448 178.859 7.81754C178.946 7.81559 179.032 7.83152 179.113 7.86437V8.4673H179.09C178.996 8.43494 178.896 8.422 178.797 8.42925C178.639 8.4258 178.482 8.455 178.336 8.51502C178.19 8.57505 178.058 8.66461 177.948 8.77809C177.838 8.89157 177.753 9.02653 177.697 9.1745C177.642 9.32248 177.618 9.48028 177.626 9.63803V11.8507H177.003V7.86437H177.626L177.656 8.52876Z" fill="white"/>
<path d="M181.964 11.2944C181.81 11.4981 181.61 11.6618 181.38 11.7719C181.149 11.8819 180.896 11.935 180.641 11.9266C179.883 11.9266 179.292 11.5725 179.292 10.8174C179.292 9.87784 180.029 9.68467 181.024 9.52955C181.586 9.44467 181.982 9.39198 181.982 8.95881C181.982 8.52564 181.657 8.25931 181.086 8.25931C180.439 8.25931 180.114 8.53443 180.094 9.13735H179.47C179.494 8.36467 180.003 7.78809 181.06 7.78809C181.905 7.78809 182.523 8.10418 182.523 9.05247V10.9491C182.523 11.271 182.599 11.4495 182.944 11.3734H182.982V11.8271C182.876 11.8711 182.761 11.8921 182.646 11.8886C182.561 11.8984 182.476 11.8904 182.394 11.8652C182.313 11.84 182.238 11.7981 182.174 11.7421C182.109 11.6862 182.058 11.6175 182.022 11.5404C181.985 11.4633 181.966 11.3795 181.964 11.2944ZM181.979 10.3783V9.69931C181.695 9.84758 181.388 9.94655 181.071 9.99199C180.445 10.1091 179.944 10.2174 179.944 10.8027C179.944 11.3325 180.36 11.4495 180.77 11.4495C180.92 11.4611 181.071 11.4423 181.214 11.3943C181.357 11.3462 181.488 11.27 181.601 11.1701C181.714 11.0701 181.805 10.9486 181.87 10.8125C181.935 10.6765 181.972 10.5289 181.979 10.3783Z" fill="white"/>
<path d="M183.12 7.86401H183.705V6.6084H184.329V7.86401H185.099V8.37328H184.329V10.9635C184.329 11.2562 184.475 11.3323 184.73 11.3323C184.842 11.3307 184.953 11.3129 185.06 11.2796H185.084V11.8182C184.92 11.8546 184.752 11.8733 184.583 11.8738C184.074 11.8738 183.705 11.666 183.705 11.1011V8.37328H183.12V7.86401Z" fill="white"/>
<path d="M185.479 9.86026C185.479 8.70416 186.234 7.76465 187.367 7.76465C188.564 7.76465 189.202 8.68953 189.202 10.0066H186.12C186.164 10.8173 186.606 11.4349 187.405 11.4349C187.657 11.4574 187.909 11.3863 188.113 11.2352C188.316 11.0841 188.457 10.8635 188.508 10.6154H189.129C189.061 11.0118 188.848 11.3688 188.532 11.617C188.215 11.8653 187.818 11.9871 187.417 11.9588C186.202 11.9588 185.479 11.0164 185.479 9.86026ZM186.135 9.53831H188.543C188.505 8.74514 188.096 8.25928 187.373 8.25928C186.65 8.25928 186.228 8.81245 186.135 9.53831Z" fill="white"/>
<path d="M160.065 18.9074C160.065 17.2888 161.037 16.0332 162.679 16.0332C163.967 16.0332 164.745 16.7737 164.892 17.7893H164.213C164.081 17.1044 163.534 16.6332 162.664 16.6332C161.453 16.6332 160.774 17.6137 160.774 18.9074C160.774 20.2566 161.523 21.1669 162.67 21.1669C163.712 21.1669 164.204 20.4586 164.274 19.6478H164.959C164.939 20.2291 164.703 20.7821 164.297 21.1991C164.074 21.4004 163.814 21.5557 163.53 21.6561C163.247 21.7566 162.947 21.8002 162.647 21.7844C161.084 21.7756 160.065 20.5815 160.065 18.9074Z" fill="white"/>
<path d="M165.421 19.6801C165.421 18.524 166.162 17.5815 167.35 17.5815C168.538 17.5815 169.27 18.524 169.27 19.6801C169.27 20.8362 168.544 21.7757 167.35 21.7757C166.156 21.7757 165.421 20.8362 165.421 19.6801ZM168.641 19.6801C168.641 18.802 168.211 18.0996 167.362 18.0996C166.513 18.0996 166.074 18.7991 166.074 19.6801C166.074 20.561 166.513 21.2518 167.362 21.2518C168.211 21.2518 168.641 20.5581 168.641 19.6801Z" fill="white"/>
<path d="M170.517 18.345H170.535C170.653 18.137 170.823 17.9627 171.028 17.8387C171.233 17.7147 171.466 17.6452 171.705 17.6367C171.793 17.6331 171.88 17.6491 171.96 17.6836V18.2836H171.937C171.847 18.2531 171.753 18.2402 171.659 18.2455C171.501 18.2425 171.344 18.272 171.198 18.3322C171.052 18.3923 170.92 18.4819 170.81 18.5953C170.7 18.7087 170.615 18.8435 170.56 18.9912C170.504 19.139 170.48 19.2966 170.488 19.4543V21.6582H169.864V17.6836H170.488L170.517 18.345Z" fill="white"/>
<path d="M172.537 17.6836H173.163V18.2456C173.304 18.0375 173.495 17.8683 173.718 17.7537C173.942 17.6391 174.191 17.5828 174.442 17.59C175.452 17.59 176.154 18.3597 176.154 19.6856C176.154 21.0114 175.499 21.7841 174.419 21.7841C174.177 21.7978 173.936 21.7516 173.717 21.6494C173.498 21.5473 173.308 21.3924 173.163 21.1987V22.9548H172.537V17.6836ZM175.528 19.6944C175.528 18.7987 175.15 18.1227 174.395 18.1227C173.517 18.1227 173.122 18.8309 173.122 19.6944C173.122 20.5578 173.47 21.2602 174.386 21.2602C175.15 21.2602 175.528 20.5958 175.528 19.6944Z" fill="white"/>
<path d="M176.57 19.6801C176.57 18.524 177.307 17.5815 178.496 17.5815C179.684 17.5815 180.416 18.524 180.416 19.6801C180.416 20.8362 179.69 21.7757 178.496 21.7757C177.301 21.7757 176.57 20.8362 176.57 19.6801ZM179.775 19.6801C179.775 18.802 179.344 18.0996 178.496 18.0996C177.647 18.0996 177.208 18.7991 177.208 19.6801C177.208 20.561 177.647 21.2518 178.496 21.2518C179.344 21.2518 179.763 20.5581 179.763 19.6801H179.775Z" fill="white"/>
<path d="M181.662 18.345H181.68C181.8 18.1349 181.972 17.9593 182.18 17.8352C182.387 17.7111 182.624 17.6427 182.865 17.6367C182.953 17.6331 183.04 17.6491 183.12 17.6836V18.2836H183.097C183.007 18.2527 182.913 18.2397 182.819 18.2455C182.661 18.2425 182.504 18.272 182.358 18.3322C182.212 18.3923 182.08 18.4819 181.97 18.5953C181.861 18.7087 181.775 18.8435 181.72 18.9912C181.664 19.139 181.64 19.2966 181.648 19.4543V21.6582H181.024V17.6836H181.648L181.662 18.345Z" fill="white"/>
<path d="M185.974 21.1138C185.819 21.3171 185.618 21.4806 185.387 21.5906C185.157 21.7005 184.903 21.7538 184.648 21.746C183.893 21.746 183.298 21.3889 183.298 20.6338C183.298 19.6943 184.039 19.5011 185.034 19.346C185.596 19.2611 185.988 19.2084 185.988 18.7782C185.988 18.3479 185.666 18.0757 185.11 18.0757C184.463 18.0757 184.138 18.3538 184.115 18.9538H183.512C183.536 18.184 184.045 17.6045 185.101 17.6045C185.95 17.6045 186.565 17.9206 186.565 18.8689V20.7801C186.565 21.105 186.641 21.2806 186.989 21.2045H187.013V21.6582C186.905 21.7021 186.789 21.723 186.673 21.7196C186.586 21.7327 186.497 21.7268 186.413 21.7024C186.328 21.6779 186.25 21.6354 186.184 21.5778C186.117 21.5202 186.064 21.4489 186.028 21.3688C185.992 21.2887 185.973 21.2017 185.974 21.1138ZM185.974 20.1947V19.5157C185.689 19.6639 185.381 19.7629 185.063 19.8084C184.44 19.9255 183.939 20.0338 183.939 20.6191C183.939 21.1518 184.355 21.266 184.762 21.266C184.914 21.28 185.066 21.263 185.211 21.2162C185.356 21.1693 185.49 21.0935 185.605 20.9933C185.719 20.8931 185.813 20.7707 185.878 20.6334C185.944 20.4961 185.982 20.3469 185.988 20.1947H185.974Z" fill="white"/>
<path d="M187.13 17.6838H187.715V16.4253H188.339V17.6838H189.111V18.1902H188.339V20.7804C188.339 21.0585 188.485 21.1521 188.74 21.1521C188.853 21.1498 188.965 21.1311 189.073 21.0965H189.097V21.638C188.931 21.6721 188.762 21.6898 188.593 21.6907C188.084 21.6907 187.715 21.4829 187.715 20.9209V18.1902H187.13V17.6838Z" fill="white"/>
<path d="M189.489 19.6801C189.489 18.524 190.244 17.5815 191.377 17.5815C192.571 17.5815 193.212 18.5064 193.212 19.8264H190.127C190.174 20.6342 190.613 21.2518 191.415 21.2518C191.667 21.2737 191.918 21.2028 192.121 21.0524C192.324 20.902 192.465 20.6825 192.518 20.4352H193.127C193.058 20.8308 192.844 21.1866 192.528 21.4342C192.212 21.6817 191.815 21.8034 191.415 21.7757C190.197 21.7757 189.489 20.8362 189.489 19.6801ZM190.141 19.3552H192.539C192.5 18.562 192.094 18.0762 191.368 18.0762C190.642 18.0762 190.235 18.6293 190.141 19.3552Z" fill="white"/>
<path d="M160.273 25.9727H164.166V26.5844H160.967V28.3258H163.873V28.9112H160.967V30.8458H164.251V31.4868H160.273V25.9727Z" fill="white"/>
<path d="M164.599 29.4965C164.599 28.3404 165.337 27.4009 166.525 27.4009C166.932 27.3705 167.336 27.4974 167.653 27.7554C167.97 28.0135 168.176 28.383 168.228 28.7882H167.596C167.566 28.5317 167.437 28.2969 167.238 28.1331C167.038 27.9694 166.782 27.8895 166.525 27.9102C165.676 27.9102 165.237 28.6126 165.237 29.4907C165.237 30.3687 165.676 31.0624 166.525 31.0624C166.662 31.0745 166.8 31.0581 166.931 31.0141C167.062 30.9702 167.182 30.8996 167.284 30.807C167.386 30.7143 167.467 30.6015 167.524 30.4757C167.58 30.3499 167.61 30.2138 167.611 30.076H168.228C168.143 31.0331 167.52 31.5863 166.525 31.5863C165.337 31.5921 164.599 30.6526 164.599 29.4965Z" fill="white"/>
<path d="M168.6 29.4965C168.6 28.3404 169.338 27.4009 170.526 27.4009C171.714 27.4009 172.446 28.3404 172.446 29.4965C172.446 30.6526 171.72 31.5921 170.526 31.5921C169.332 31.5921 168.6 30.6526 168.6 29.4965ZM171.805 29.4965C171.805 28.6184 171.375 27.916 170.526 27.916C169.677 27.916 169.238 28.6184 169.238 29.4965C169.238 30.3745 169.677 31.0682 170.526 31.0682C171.375 31.0682 171.805 30.3745 171.805 29.4965Z" fill="white"/>
<path d="M173.693 28.0243H173.71C173.854 27.8254 174.044 27.6649 174.265 27.5572C174.486 27.4495 174.729 27.3978 174.975 27.4068C175.806 27.4068 176.315 27.8633 176.315 28.6887V31.4867H175.689V28.7414C175.689 28.2233 175.352 27.9307 174.787 27.9307C174.641 27.9248 174.496 27.9494 174.359 28.0029C174.223 28.0564 174.1 28.1376 173.997 28.2414C173.894 28.3452 173.814 28.4692 173.761 28.6057C173.709 28.7422 173.686 28.8881 173.693 29.0341V31.4867H173.069V27.5121H173.693V28.0243Z" fill="white"/>
<path d="M176.915 29.4965C176.915 28.3404 177.656 27.4009 178.844 27.4009C180.032 27.4009 180.761 28.3404 180.761 29.4965C180.761 30.6526 180.038 31.5921 178.844 31.5921C177.65 31.5921 176.915 30.6526 176.915 29.4965ZM180.135 29.4965C180.135 28.6184 179.701 27.916 178.856 27.916C178.01 27.916 177.568 28.6184 177.568 29.4965C177.568 30.3745 178.007 31.0682 178.856 31.0682C179.704 31.0682 180.123 30.3745 180.123 29.4965H180.135Z" fill="white"/>
<path d="M181.387 27.5122H182.011V28.0975H182.025C182.149 27.8973 182.321 27.7314 182.526 27.6153C182.73 27.4992 182.961 27.4365 183.196 27.4332C183.423 27.4231 183.647 27.487 183.834 27.6153C184.022 27.7436 184.162 27.9292 184.235 28.1444H184.25C184.372 27.928 184.549 27.748 184.763 27.623C184.978 27.498 185.222 27.4325 185.47 27.4332C186.179 27.4332 186.679 27.8897 186.679 28.7151V31.5132H186.056V28.7444C186.064 28.6434 186.051 28.5418 186.017 28.4461C185.984 28.3504 185.931 28.2627 185.862 28.1886C185.793 28.1145 185.709 28.0556 185.616 28.0158C185.523 27.9759 185.422 27.9559 185.321 27.9571C185.186 27.9631 185.054 27.9956 184.932 28.0529C184.809 28.1102 184.7 28.1911 184.609 28.2909C184.518 28.3908 184.448 28.5075 184.402 28.6346C184.357 28.7616 184.337 28.8964 184.343 29.0312V31.5132H183.72V28.7444C183.72 28.2497 183.442 27.9571 183.032 27.9571C182.757 27.9713 182.497 28.0905 182.306 28.2903C182.116 28.49 182.009 28.7552 182.008 29.0312V31.5132H181.384L181.387 27.5122Z" fill="white"/>
<path d="M187.282 29.4965C187.282 28.3404 188.037 27.4009 189.173 27.4009C190.367 27.4009 191.005 28.3258 191.005 29.6428H187.923C187.97 30.4536 188.409 31.0682 189.211 31.0682C189.462 31.0907 189.714 31.02 189.916 30.8694C190.119 30.7189 190.26 30.499 190.311 30.2516H190.92C190.853 30.6475 190.64 31.0042 190.324 31.252C190.008 31.4998 189.611 31.6211 189.211 31.5921C187.993 31.5921 187.282 30.6526 187.282 29.4965ZM187.938 29.1716H190.335C190.297 28.3784 189.89 27.8926 189.164 27.8926C188.438 27.8926 188.031 28.4487 187.938 29.1716Z" fill="white"/>
<path d="M191.283 27.512H191.868V26.2563H192.492V27.512H193.261V28.0212H192.492V30.6115C192.492 30.8866 192.638 30.9803 192.893 30.9803C193.005 30.9786 193.116 30.9609 193.223 30.9276H193.247V31.4661C193.082 31.5016 192.915 31.5193 192.746 31.5188C192.237 31.5188 191.868 31.311 191.868 30.749V28.0095H191.283V27.512Z" fill="white"/>
<path d="M194.529 28.1619C194.65 27.9523 194.823 27.7772 195.031 27.6532C195.239 27.5292 195.475 27.4605 195.717 27.4536C195.804 27.45 195.891 27.466 195.972 27.5005V28.0975H195.948C195.854 28.0668 195.755 28.0539 195.656 28.0595C195.499 28.058 195.343 28.0888 195.198 28.1499C195.054 28.211 194.923 28.3012 194.815 28.4147C194.707 28.5283 194.623 28.6629 194.568 28.8103C194.514 28.9576 194.491 29.1144 194.5 29.2712V31.4839H193.876V27.5122H194.5L194.529 28.1619Z" fill="white"/>
<path d="M196.548 25.9727H197.172V26.7453H196.548V25.9727ZM196.548 27.5005H197.172V31.4868H196.548V27.5005Z" fill="white"/>
<path d="M197.795 29.4965C197.795 28.3404 198.536 27.4009 199.724 27.4009C200.131 27.3705 200.535 27.4974 200.852 27.7554C201.169 28.0135 201.375 28.383 201.427 28.7882H200.795C200.765 28.5317 200.636 28.2969 200.437 28.1331C200.237 27.9694 199.981 27.8895 199.724 27.9102C198.875 27.9102 198.436 28.6126 198.436 29.4907C198.436 30.3687 198.875 31.0624 199.724 31.0624C199.861 31.0745 200 31.0581 200.13 31.0141C200.261 30.9702 200.381 30.8996 200.483 30.807C200.585 30.7143 200.667 30.6015 200.723 30.4757C200.779 30.3499 200.809 30.2138 200.81 30.076H201.422C201.337 31.0331 200.713 31.5863 199.718 31.5863C198.536 31.5921 197.795 30.6526 197.795 29.4965Z" fill="white"/>
<path d="M160.273 35.792H162.849C163.821 35.792 164.476 36.4008 164.476 37.3022C164.501 37.6055 164.418 37.9077 164.244 38.1567C164.069 38.4058 163.813 38.5859 163.519 38.6661V38.6896C164.081 38.8915 164.26 39.2749 164.312 40.0915C164.374 40.9696 164.467 41.2037 164.567 41.2622V41.2944H163.821C163.703 41.1949 163.68 40.9842 163.619 40.0593C163.566 39.2515 163.241 38.9647 162.501 38.9647H160.967V41.3061H160.273V35.792ZM160.967 38.4115H162.6C163.373 38.4115 163.771 38.0281 163.771 37.4017C163.771 36.7315 163.461 36.392 162.653 36.392H160.979L160.967 38.4115Z" fill="white"/>
<path d="M164.959 39.3129C164.959 38.1568 165.717 37.2173 166.85 37.2173C168.044 37.2173 168.685 38.1422 168.685 39.4592H165.6C165.647 40.27 166.086 40.8875 166.888 40.8875C167.14 40.9099 167.391 40.8388 167.594 40.6876C167.797 40.5365 167.937 40.3159 167.988 40.068H168.6C168.531 40.4641 168.318 40.8207 168.002 41.0689C167.686 41.317 167.289 41.4391 166.888 41.4114C165.67 41.4114 164.959 40.469 164.959 39.3129ZM165.615 38.9909H168.012C167.974 38.1978 167.567 37.7119 166.841 37.7119C166.115 37.7119 165.714 38.2651 165.615 38.9909Z" fill="white"/>
<path d="M169.039 40.0066H169.677C169.762 40.7002 170.224 40.8846 170.818 40.8846C171.474 40.8846 171.743 40.5919 171.743 40.229C171.743 39.7841 171.436 39.667 170.701 39.5119C169.917 39.351 169.215 39.19 169.215 38.3178C169.215 37.6563 169.724 37.2231 170.649 37.2231C171.635 37.2231 172.112 37.6944 172.215 38.4729H171.568C171.506 37.949 171.219 37.7178 170.628 37.7178C170.037 37.7178 169.826 37.9724 169.826 38.3031C169.826 38.7334 170.213 38.8183 170.897 38.9588C171.699 39.1197 172.361 39.2953 172.361 40.2144C172.361 41.0163 171.705 41.4231 170.789 41.4231C169.709 41.4173 169.1 40.9022 169.039 40.0066Z" fill="white"/>
<path d="M172.829 39.3129C172.829 38.1568 173.584 37.2173 174.72 37.2173C175.914 37.2173 176.552 38.1422 176.552 39.4592H173.47C173.517 40.27 173.956 40.8875 174.758 40.8875C175.01 40.9099 175.262 40.8388 175.465 40.6876C175.667 40.5365 175.808 40.3159 175.858 40.068H176.467C176.4 40.4642 176.188 40.8211 175.872 41.0694C175.556 41.3177 175.159 41.4396 174.758 41.4114C173.54 41.4114 172.829 40.469 172.829 39.3129ZM173.485 38.9909H175.882C175.844 38.1978 175.437 37.7119 174.711 37.7119C173.985 37.7119 173.578 38.2651 173.485 38.9909Z" fill="white"/>
<path d="M179.605 40.7471C179.45 40.9506 179.249 41.1142 179.019 41.2242C178.788 41.3342 178.534 41.3873 178.279 41.3793C177.524 41.3793 176.93 41.0251 176.93 40.27C176.93 39.3305 177.67 39.1373 178.662 38.9822C179.227 38.8973 179.619 38.8446 179.619 38.4115C179.619 37.9783 179.295 37.7119 178.724 37.7119C178.077 37.7119 177.755 37.9871 177.732 38.59H177.129C177.152 37.8173 177.661 37.2407 178.718 37.2407C179.567 37.2407 180.181 37.5568 180.181 38.5051V40.39C180.181 40.7119 180.257 40.8905 180.606 40.8144H180.641V41.268C180.533 41.3103 180.417 41.3311 180.301 41.3295C180.217 41.3414 180.13 41.3355 180.048 41.312C179.966 41.2885 179.889 41.248 179.824 41.1931C179.758 41.1382 179.705 41.0701 179.667 40.9933C179.629 40.9165 179.608 40.8326 179.605 40.7471ZM179.622 39.831V39.1519C179.337 39.2997 179.03 39.3987 178.712 39.4446C178.086 39.5617 177.585 39.67 177.585 40.2554C177.585 40.7851 178.001 40.9022 178.411 40.9022C178.561 40.9141 178.712 40.8956 178.856 40.8478C178.999 40.8 179.131 40.7238 179.244 40.6238C179.357 40.5239 179.449 40.4021 179.514 40.2659C179.579 40.1297 179.616 39.9818 179.622 39.831Z" fill="white"/>
<path d="M181.718 37.9814H181.733C181.853 37.7711 182.026 37.5952 182.234 37.4707C182.442 37.3462 182.679 37.2771 182.921 37.2702C183.008 37.2682 183.095 37.2842 183.176 37.317V37.9199H183.152C183.058 37.8876 182.959 37.8746 182.859 37.8819C182.702 37.8784 182.545 37.9076 182.398 37.9677C182.252 38.0277 182.12 38.1173 182.01 38.2307C181.9 38.3442 181.815 38.4792 181.76 38.6271C181.704 38.7751 181.68 38.9329 181.689 39.0907V41.3034H181.062V37.317H181.689L181.718 37.9814Z" fill="white"/>
<path d="M183.36 39.3129C183.36 38.1568 184.1 37.2173 185.286 37.2173C185.693 37.187 186.097 37.3138 186.414 37.5718C186.731 37.8299 186.937 38.1994 186.989 38.6046H186.357C186.327 38.3481 186.198 38.1133 185.999 37.9495C185.799 37.7858 185.543 37.7059 185.286 37.7266C184.44 37.7266 183.998 38.429 183.998 39.3071C183.998 40.1851 184.44 40.8817 185.286 40.8817C185.423 40.8934 185.561 40.8766 185.692 40.8325C185.823 40.7884 185.943 40.7179 186.045 40.6254C186.147 40.5329 186.229 40.4203 186.286 40.2947C186.342 40.1691 186.373 40.0332 186.375 39.8954H186.989C186.904 40.8495 186.281 41.4056 185.286 41.4056C184.1 41.4115 183.36 40.469 183.36 39.3129Z" fill="white"/>
<path d="M188.207 37.8408H188.224C188.368 37.6422 188.559 37.4821 188.779 37.3749C189 37.2677 189.244 37.2166 189.489 37.2261C190.32 37.2261 190.829 37.6798 190.829 38.5052V41.3032H190.203V38.5578C190.203 38.0427 189.866 37.75 189.301 37.75C189.156 37.7442 189.01 37.7687 188.874 37.8221C188.739 37.8754 188.615 37.9563 188.512 38.0598C188.409 38.1633 188.329 38.287 188.277 38.4231C188.224 38.5592 188.2 38.7047 188.207 38.8505V41.3032H187.583V35.792H188.207V37.8408Z" fill="white"/>
<path d="M152.122 5.84473H150.395V41.3384H152.122V5.84473Z" fill="url(#paint0_linear_0_426)"/>
<defs>
<linearGradient id="paint0_linear_0_426" x1="151.259" y1="6.79302" x2="151.259" y2="40.4603" gradientUnits="userSpaceOnUse">
<stop stop-color="#29AAE1"/>
<stop offset="1" stop-color="#8FC640"/>
</linearGradient>
</defs>
</svg>
